<svg xmlns="http://www.w3.org/2000/svg" viewBox="0 0 346.34 413.56"><defs><style>.cls-1{fill:#112c25;opacity:0.3;}.cls-1,.cls-4,.cls-5,.cls-6,.cls-8{stroke:#231f20;}.cls-1,.cls-3,.cls-4,.cls-5,.cls-7,.cls-8{stroke-miterlimit:10;}.cls-1,.cls-3,.cls-4,.cls-5,.cls-6,.cls-7,.cls-8,.cls-9{stroke-width:1.45px;}.cls-2,.cls-6,.cls-9{fill:#fff;}.cls-3{fill:#262626;}.cls-3,.cls-7,.cls-9{stroke:#000;}.cls-4{fill:#8cdfea;}.cls-5{fill:none;}.cls-6,.cls-9{stroke-linecap:round;stroke-linejoin:round;}.cls-7{fill:#e3526c;}.cls-8{fill:#ffdc6c;}.cls-10{font-size:98.91px;fill:#4e75ad;font-family:Norwester-Regular, Norwester;}.cls-11{letter-spacing:-0.01em;}.cls-12{letter-spacing:-0.08em;}.cls-13{letter-spacing:-0.02em;}.cls-14{letter-spacing:-0.01em;}.cls-15{letter-spacing:0em;}</style></defs><g id="Capa_2" data-name="Capa 2"><g id="Capa_1-2" data-name="Capa 1"><path class="cls-1" d="M332.78,151.88a22.65,22.65,0,0,0-17-35.91l-14-.86a22.69,22.69,0,0,0-20.56,10.53c-1.12,1.79-11.13,17.74-16.28,29-1.49,3.26-5.57,13.67-10.68,27,1.18-19.85,1.95-33,1.95-33,0-.59.05-1.18,0-1.76-.12-5.83-.78-16.73-4-24.26-1-2.37-3.39-8-3.08-12.9a37.79,37.79,0,0,0-5.2-21.48c.62-18.91-1-30.13-4-37.65,0-.32.06-.64.08-1l.69-11.15a22.67,22.67,0,0,0-21.24-24l-58.22-3.56a22.67,22.67,0,0,0-24,21.24L136.7,43.3c0,.24,0,.5,0,.73a51.26,51.26,0,0,0-3.47,9.51,24.3,24.3,0,0,0-22-17L92.09,35.35,56.55,17a24.46,24.46,0,0,0-10-2.8c-13.47-.83-24.67,9.25-25.51,22.94L20.48,47a25.14,25.14,0,0,0,3,13.57,25.13,25.13,0,0,0-4.63,13.09l-.6,9.87a25.35,25.35,0,0,0,.49,6.74,25.11,25.11,0,0,0-1.29,6.29l-.84,13.73a24.42,24.42,0,0,0,3,13.24A24.38,24.38,0,0,0,15,136.37l-.56,9.08a24.49,24.49,0,0,0,1,8.59,24.37,24.37,0,0,0-2,8.4l-.59,9.47a24.41,24.41,0,0,0,2,11.33A40.66,40.66,0,0,0,11.25,198L10.58,209a40.8,40.8,0,0,0,1.78,15.07A24.64,24.64,0,0,0,9,235.1l-.55,9.09a24.43,24.43,0,0,0,1,8.58,24.48,24.48,0,0,0-2,8.4l-.58,9.48a24.51,24.51,0,0,0,2,11.32,40.91,40.91,0,0,0-3.62,14.74l-1.44,23.7a25.22,25.22,0,0,0,.53,6.82,24.74,24.74,0,0,0-1.36,6.6l-.55,9.08a24.7,24.7,0,0,0,1,8.59,24.47,24.47,0,0,0-2,8.4l-.59,9.48a24.67,24.67,0,0,0,23.09,26.09l52.92,3.24c9.76.59,18.36-2,25-6.94a22.6,22.6,0,0,0,16.29,8.49l72.14,4.42a95.58,95.58,0,0,0,32.46,7.9l.73,0,.73.05c8.68.53,25.78.25,42.73-7.53,23.23-10.66,37.63-31.8,40.56-59.56a95.69,95.69,0,0,0-4.71-46c.19-3.73,0-12.77-11-34.49a22.76,22.76,0,0,0-7.73-8.65l31.91-81.26Z"/><path class="cls-2" d="M341.85,143.16A22.65,22.65,0,0,0,325.35,107l-14-1a22.65,22.65,0,0,0-20.67,10.28c-1.16,1.76-11.36,17.59-16.65,28.83-1.53,3.24-5.74,13.6-11,26.81,1.42-19.82,2.36-33,2.36-33,0-.58.07-1.17.06-1.76,0-5.83-.57-16.73-3.68-24.3-1-2.39-3.28-8-2.92-12.93a37.7,37.7,0,0,0-4.93-21.55c.87-18.9-.59-30.14-3.51-37.69q.06-.48.09-1l.83-11.15A22.66,22.66,0,0,0,230.4,4.35L172.23.06A22.65,22.65,0,0,0,148,21l-.83,11.14c0,.25,0,.49,0,.74a50.69,50.69,0,0,0-3.59,9.46A24.31,24.31,0,0,0,121.75,25l-19.11-1.41L67.34,4.84a24.71,24.71,0,0,0-9.93-2.92c-13.45-1-24.78,9-25.79,22.63l-.73,9.86A25.12,25.12,0,0,0,33.73,48a25.1,25.1,0,0,0-4.8,13l-.73,9.86a25.57,25.57,0,0,0,.42,6.75,24.87,24.87,0,0,0-1.38,6.26l-1,13.72a24.18,24.18,0,0,0,2.83,13.28,24.37,24.37,0,0,0-4.75,12.76l-.67,9.08a24.27,24.27,0,0,0,.89,8.59,24.59,24.59,0,0,0-2.14,8.37l-.7,9.48a24.67,24.67,0,0,0,1.88,11.35,40.83,40.83,0,0,0-3.8,14.69l-.81,11a40.61,40.61,0,0,0,1.61,15.09,24.59,24.59,0,0,0-3.53,11l-.67,9.07a24.58,24.58,0,0,0,.89,8.6,24.47,24.47,0,0,0-2.14,8.37l-.7,9.47a24.48,24.48,0,0,0,1.89,11.34,40.63,40.63,0,0,0-3.8,14.7l-1.75,23.68a24.86,24.86,0,0,0,.45,6.82A24.28,24.28,0,0,0,9.78,321l-.66,9.07a24.58,24.58,0,0,0,.88,8.6A24.35,24.35,0,0,0,7.87,347l-.7,9.47a24.66,24.66,0,0,0,22.76,26.38l52.88,3.9c9.75.72,18.38-1.75,25.09-6.63a22.59,22.59,0,0,0,16.18,8.7l72.08,5.31a94.93,94.93,0,0,0,32.36,8.3l.73.05.73.06c8.67.64,25.77.59,42.82-7,23.36-10.38,38-31.33,41.29-59.05A95.63,95.63,0,0,0,310,290.44c.23-3.73.18-12.77-10.58-34.63a22.81,22.81,0,0,0-7.61-8.75l32.91-80.85Z"/><path class="cls-3" d="M161.54,81.15s1.53-38.65,7.9-40,56.38,4.15,56.38,4.15,8.22-2.25,4.91,41.29Z"/><polygon class="cls-3" points="175.1 34.2 174.96 36.19 170.94 35.9 170.61 40.46 225.82 45.32 226.22 39.97 222.24 39.24 222.36 37.67 175.1 34.2"/><rect class="cls-4" x="193.65" y="1.2" width="11.18" height="58.33" transform="translate(154.32 226.84) rotate(-85.79)"/><path class="cls-5" d="M205.09,84.09c-6.33-.6-14.28-1.26-19.79-1.46,4.75.44,8.65.84,10,1S200.46,83.84,205.09,84.09Z"/><path class="cls-3" d="M139.35,143.68c-4.21.32-10.48,4.21-11.36,24.16-1.34,30.39-9.17,123.93-9.17,123.93s-3.2,8.67,8.58,12.16C130.84,256.21,136.75,178,139.35,143.68Z"/><path class="cls-4" d="M242.8,137.33s-.07-11.21-2-15.83-5.29-13.39-4.56-23.2c0,0,.78-10.7-7.18-12.17-4.67-.88-15.7-1.6-24-2-4.63-.25-8.42-.41-9.77-.47s-5.27-.55-10-1c-8.25-.77-19.06-1.66-23.76-1.48-8.09.3-8.88,11-8.88,11-.72,9.8-5.36,18-7.91,22.27s-4.28,15.37-4.28,15.37-.48,6.42-1.28,17c-2.59,34.31-8.5,112.54-12,160.25-.82,11.29-1.51,20.89-2,27.77l19.51,1.44,83,6.12C231.37,297.5,242.8,137.33,242.8,137.33Z"/><path class="cls-3" d="M125.27,334.84c-.34,4.9-.57,8.45-.66,10.26-.89,18.3,1.14,21.14,1.14,21.14l47.05,3.47,2.87.21,47.06,3.47s2.42-2.52,4.21-20.76c.18-1.79.48-5.34.87-10.23l-83-6.12Z"/><path class="cls-6" d="M214.83,85.06,203,84.2l.48,11.69c-.72,9.8,2.67,18.57,4.57,23.19s2,15.84,2,15.84S198.56,295.08,195,340l19.32,1.42c3.58-44.9,15-205.07,15-205.07s-.07-11.2-2-15.82-5.28-13.39-4.57-23.2c0,0,.79-10.7-7.17-12.18"/><rect class="cls-2" x="192.12" y="345.08" width="22.8" height="19.73" transform="translate(-165.44 531.79) rotate(-85.78)"/><path class="cls-6" d="M203.3,79.74s2.28-27.06.84-31.76l14.71,1.09s1.48,19.38.79,31.87Z"/><path class="cls-7" d="M284.63,289.22l-45.71-3.38-2.15-.16-45.71-3.36s-13.59,15.75-13.42,42.8c-1.66,49,44.08,54.23,53.28,54.79,9.17.8,55.18,2.32,60.71-46.39C295.77,306.78,284.63,289.22,284.63,289.22Z"/><path class="cls-8" d="M287.33,289.41l-99.48-7.33s9.27-22.29,13.45-22l77.75,5.72S287.76,283.49,287.33,289.41Z"/><path class="cls-9" d="M251.36,263.78s38.37-98.81,43.17-109S309.7,128.6,309.7,128.6l14,1L304.79,155,260.24,264.44Z"/><polygon class="cls-9" points="297.69 148.64 307.51 151.34 304.79 155 297.69 148.64"/><path class="cls-9" d="M252.74,294.91l24.48,1.8s12.59,66.71-30.24,76.34Z"/><text class="cls-10" transform="translate(98.46 356.68) rotate(-85.79)"><tspan class="cls-11">M</tspan><tspan class="cls-12" x="65.28" y="0">a</tspan><tspan x="113.45" y="0">t</tspan><tspan class="cls-13" x="158.95" y="0">e</tspan><tspan class="cls-14" x="206.33" y="0">a</tspan><tspan class="cls-15" x="261.43" y="0">r</tspan></text></g></g></svg>