<svg xmlns="http://www.w3.org/2000/svg" viewBox="0 0 432.31 751.91"><defs><style>.cls-1{fill:#262626;}.cls-1,.cls-6,.cls-8{stroke:#000;}.cls-1,.cls-2,.cls-3,.cls-6,.cls-7{stroke-miterlimit:10;}.cls-1,.cls-2,.cls-3,.cls-4,.cls-6,.cls-7,.cls-8{stroke-width:1.45px;}.cls-2{fill:#8cdfea;}.cls-2,.cls-3,.cls-4,.cls-7{stroke:#231f20;}.cls-3{fill:none;}.cls-4,.cls-5,.cls-8{fill:#fff;}.cls-4,.cls-8{stroke-linecap:round;stroke-linejoin:round;}.cls-6{fill:#e3526c;}.cls-7{fill:#ffdc6c;}</style></defs><g id="Capa_2" data-name="Capa 2"><g id="Capa_1-2" data-name="Capa 1"><path class="cls-1" d="M91.24,123.57s3.2-81.14,16.57-83.92,118.36,8.71,118.36,8.71,17.25-4.72,10.3,86.68Z"/><polygon class="cls-1" points="119.7 25.01 119.39 29.2 110.97 28.58 110.26 38.16 226.16 48.36 226.99 37.13 218.65 35.59 218.9 32.31 119.7 25.01"/><rect class="cls-2" x="158.64" y="-44.25" width="23.46" height="122.45" transform="translate(140.92 185.64) rotate(-85.79)"/><path class="cls-3" d="M182.65,129.73c-13.3-1.24-30-2.64-41.55-3.06,10,.92,18.16,1.78,21,2.08C165,128.87,172.92,129.22,182.65,129.73Z"/><path class="cls-1" d="M44.65,254.82c-8.83.67-22,8.84-23.85,50.72C18,369.32,1.56,565.68,1.56,565.68s-6.72,18.19,18,25.51C26.79,491,39.2,326.83,44.65,254.82Z"/><path class="cls-2" d="M261.8,241.5s-.14-23.53-4.13-33.23-11.1-28.1-9.58-48.7c0,0,1.65-22.45-15.06-25.55-9.82-1.84-33-3.35-50.38-4.29-9.73-.51-17.68-.86-20.52-1-2.87-.3-11.06-1.16-21-2.08-17.31-1.62-40-3.47-49.86-3.1-17,.63-18.65,23.09-18.65,23.09C71.08,167.24,61.34,184.4,56,193.4s-9,32.27-9,32.27-1,13.48-2.7,35.75c-5.44,72-17.84,236.22-25.09,336.37-1.72,23.71-3.15,43.84-4.13,58.3l41,3L230.33,672C237.81,577.7,261.8,241.5,261.8,241.5Z"/><path class="cls-1" d="M15.09,656.09c-.7,10.29-1.18,17.74-1.37,21.53C11.84,716.05,16.1,722,16.1,722l98.76,7.27,6,.45L219.66,737s5.09-5.29,8.86-43.57c.37-3.77,1-11.22,1.81-21.49L56.05,659.1Z"/><path class="cls-4" d="M203.09,131.77,178.21,130l1,24.53c-1.52,20.59,5.59,39,9.59,48.7s4.13,33.23,4.13,33.23-24,336.19-31.49,430.44l40.57,3c7.5-94.24,31.49-430.45,31.49-430.45s-.14-23.51-4.13-33.22-11.09-28.1-9.58-48.69c0,0,1.65-22.45-15.06-25.56"/><polygon class="cls-5" points="198.25 723.67 156.95 720.63 160.46 672.9 201.77 675.95 198.25 723.67"/><path class="cls-4" d="M178.89,120.61s4.78-56.8,1.75-66.67l30.89,2.29s3.11,40.67,1.66,66.91Z"/><path class="cls-6" d="M349.61,560.32l-95.94-7.08-4.52-.34-96-7.06S124.68,578.9,125,635.68c-3.48,102.87,92.52,113.84,111.83,115,19.26,1.67,115.84,4.87,127.45-97.37C373,597.19,349.61,560.32,349.61,560.32Z"/><path class="cls-7" d="M355.27,560.72,146.45,545.34s19.47-46.79,28.24-46.15l163.21,12S356.18,548.3,355.27,560.72Z"/><path class="cls-8" d="M279.78,506.92s80.52-207.41,90.61-228.79,31.84-55,31.84-55l29.36,2.16-39.67,53.25L298.41,508.3Z"/><polygon class="cls-8" points="377.03 265.24 397.63 270.9 391.92 278.57 377.03 265.24"/><path class="cls-8" d="M282.67,572.27l51.38,3.79s26.43,140-63.47,160.23Z"/></g></g></svg>