<svg xmlns="http://www.w3.org/2000/svg" viewBox="0 0 716.54 442.7"><defs><style>.cls-1{isolation:isolate;}.cls-2{fill:#262626;}.cls-2,.cls-5{stroke:#000;}.cls-2,.cls-3,.cls-4,.cls-6{stroke-miterlimit:10;}.cls-2,.cls-3,.cls-4,.cls-5,.cls-6{stroke-width:1.45px;}.cls-3{fill:#67e8f9;}.cls-3,.cls-4,.cls-6{stroke:#231f20;}.cls-4{fill:#ffdc6c;}.cls-5{fill:#fff;stroke-linecap:round;stroke-linejoin:round;}.cls-6{fill:#f7f9f9;}.cls-7,.cls-8{fill:#8ea435;}.cls-8{mix-blend-mode:multiply;opacity:0.11;}</style></defs><g class="cls-1"><g id="Capa_2" data-name="Capa 2"><g id="Capa_1-2" data-name="Capa 1"><path class="cls-2" d="M471.25,18.93,456.7,144.16l-.69,5.9L441.48,275.29s41.71,39.17,116.08,41.85C692.05,327.36,711.71,202.26,714.3,177.05c3.25-25.14,12.76-151.41-120.47-172.24C520.81-9.64,471.25,18.93,471.25,18.93Z"/><path class="cls-3" d="M472.09,11.54,440.45,284.11S380.26,256,381.58,244.59s24.73-213,24.73-213S455.88,9.67,472.09,11.54Z"/><path class="cls-4" d="M385.83,198.76S105.79,280,76.72,290.68,1.3,325.91,1.3,325.91L.75,364.48l74.07-45.64,310.67-95.61Z"/><polygon class="cls-5" points="49.02 302.66 57.56 329.33 67.3 321.43 49.02 302.66"/><path class="cls-6" d="M483.21,107.24,491,40.17s184.8-26.9,206.3,91.93Z"/><path class="cls-7" d="M172.43,378.62c7-4.76-11.45-60.65,143.07-124.18,12.21-5,26-7.52,39.24-5.93s26.54,10.18,28.27,22.41c.84,5.93-1,12.3,1.74,17.72,5,9.87,20,9.32,31.3,12.33,23.4,6.22,34.1,30.56,41.63,51.92,2.55,7.26,5.14,14.77,4.39,22.37-1.91,19.34-23.63,31.12-43.33,37.95-25.58,8.86-52.19,14.93-78.95,20-25.75,4.92-51.93,9-78.2,8-22.51-.87-69.56,6-89.39-4.19C150.92,426.06,154.1,391.05,172.43,378.62Z"/><path class="cls-8" d="M172.43,378.62c4.46-3-1.4-26.83,33.73-60.13,38.28,26.4,78.64,46.24,129.86,36.2,31.63-6.2,73.82-19.21,97.29-44.31,12,10.62,19,27.3,24.37,42.51,2.55,7.26,5.14,14.77,4.39,22.37-1.91,19.34-23.63,31.12-43.33,37.95-25.58,8.86-52.19,14.93-78.95,20-25.75,4.92-51.93,9-78.2,8-22.51-.87-69.56,6-89.39-4.19C150.92,426.06,154.1,391.05,172.43,378.62Z"/></g></g></g></svg>